<?xml version="1.0" encoding="UTF-8" standalone="no"?>
<!-- Created with Inkscape (http://www.inkscape.org/) -->

<svg
   version="1.1"
   id="svg2787"
   xml:space="preserve"
   width="682.66669"
   height="682.66669"
   viewBox="0 0 682.66669 682.66669"
   xmlns="http://www.w3.org/2000/svg"
   xmlns:svg="http://www.w3.org/2000/svg"><defs
     id="defs2791"><clipPath
       clipPathUnits="userSpaceOnUse"
       id="clipPath2801"><path
         d="M 0,512 H 512 V 0 H 0 Z"
         id="path2799" /></clipPath></defs><g
     id="g2793"
     transform="matrix(1.3333333,0,0,-1.3333333,0,682.66667)"><g
       id="g2795"><g
         id="g2797"
         clip-path="url(#clipPath2801)"><g
           id="g2803"
           transform="translate(406.638,280.9454)"><path
             d="m 0,0 c 6.047,12.835 9.443,27.166 9.443,42.295 0,49.447 -36.121,90.443 -83.413,98.082 -0.499,41.935 -34.631,75.779 -76.684,75.779 -42.053,0 -76.184,-33.844 -76.683,-75.779 -47.292,-7.639 -83.413,-48.635 -83.413,-98.082 0,-15.129 3.396,-29.46 9.443,-42.295 -31.275,-7.335 -54.569,-35.387 -54.569,-68.898 v 0 c 0,-39.095 31.692,-70.787 70.787,-70.787 h 268.871 c 39.095,0 70.787,31.692 70.787,70.787 v 0 C 54.569,-35.387 31.275,-7.335 0,0 Z"
             style="fill:none;stroke:#FFFFFF;stroke-width:30;stroke-linecap:butt;stroke-linejoin:miter;stroke-miterlimit:10;stroke-dasharray:none;stroke-opacity:1"
             id="path2805" /></g><g
           id="g2807"
           transform="translate(255.9844,381.5186)"><path
             d="M 0,0 V -366.62"
             style="fill:none;stroke:#FFFFFF;stroke-width:30;stroke-linecap:butt;stroke-linejoin:miter;stroke-miterlimit:10;stroke-dasharray:none;stroke-opacity:1"
             id="path2809" /></g><g
           id="g2811"
           transform="translate(255.9844,300.0064)"><path
             d="M 0,0 -59.332,59.332"
             style="fill:none;stroke:#FFFFFF;stroke-width:30;stroke-linecap:butt;stroke-linejoin:miter;stroke-miterlimit:10;stroke-dasharray:none;stroke-opacity:1"
             id="path2813" /></g><g
           id="g2815"
           transform="translate(255.9844,191.7957)"><path
             d="M 0,0 -59.332,59.332"
             style="fill:none;stroke:#FFFFFF;stroke-width:30;stroke-linecap:butt;stroke-linejoin:miter;stroke-miterlimit:10;stroke-dasharray:none;stroke-opacity:1"
             id="path2817" /></g><g
           id="g2819"
           transform="translate(255.9844,245.901)"><path
             d="M 0,0 59.332,59.332"
             style="fill:none;stroke:#FFFFFF;stroke-width:30;stroke-linecap:butt;stroke-linejoin:miter;stroke-miterlimit:10;stroke-dasharray:none;stroke-opacity:1"
             id="path2821" /></g><g
           id="g2823"
           transform="translate(117.2694,14.8982)"><path
             d="M 0,0 H 277.43"
             style="fill:none;stroke:#FFFFFF;stroke-width:30;stroke-linecap:butt;stroke-linejoin:miter;stroke-miterlimit:10;stroke-dasharray:none;stroke-opacity:1"
             id="path2825" /></g></g></g></g></svg>
